{
  "accessors": [
    {
      "bufferView": 2,
      "componentType": 5126,
      "count": 4,
      "max": [
        -1.5966910123825073,
        -0.21962599456310272,
        -0.19369299709796906
      ],
      "min": [
        -1.5966910123825073,
        -0.2783859968185425,
        -0.24950100481510162
      ],
      "type": "VEC3"
    },
    {
      "bufferView": 2,
      "byteOffset": 48,
      "componentType": 5126,
      "count": 4,
      "max": [
        1.0,
        0.0,
        0.0
      ],
      "min": [
        1.0,
        0.0,
        0.0
      ],
      "type": "VEC3"
    },
    {
      "bufferView": 1,
      "componentType": 5126,
      "count": 4,
      "max": [
        0.3882260024547577,
        0.7299860119819641
      ],
      "min": [
        0.22265399992465973,
        0.5644140243530273
      ],
      "type": "VEC2"
    },
    {
      "bufferView": 0,
      "componentType": 5125,
      "count": 6,
      "type": "SCALAR"
    },
    {
      "bufferView": 2,
      "byteOffset": 96,
      "componentType": 5126,
      "count": 4,
      "max": [
        -1.5935330390930176,
        0.014504999853670597,
        0.008461999706923962
      ],
      "min": [
        -1.5953110456466675,
        -0.008245999924838543,
        0.008035999722778797
      ],
      "type": "VEC3"
    },
    {
      "bufferView": 2,
      "byteOffset": 144,
      "componentType": 5126,
      "count": 4,
      "max": [
        0.2329997718334198,
        0.0,
        -0.9724767208099365
      ],
      "min": [
        0.2329997420310974,
        0.0,
        -0.9724768400192261
      ],
      "type": "VEC3"
    },
    {
      "bufferView": 1,
      "byteOffset": 32,
      "componentType": 5126,
      "count": 4,
      "max": [
        0.22961699962615967,
        0.7793830037117004
      ],
      "min": [
        0.005365000106394291,
        0.7752100229263306
      ],
      "type": "VEC2"
    },
    {
      "bufferView": 0,
      "byteOffset": 24,
      "componentType": 5125,
      "count": 6,
      "type": "SCALAR"
    },
    {
      "bufferView": 2,
      "byteOffset": 192,
      "componentType": 5126,
      "count": 4,
      "max": [
        -1.592352032661438,
        -0.05913500115275383,
        -0.11622299998998642
      ],
      "min": [
        -1.592352032661438,
        -0.0656450018286705,
        -0.11988899856805801
      ],
      "type": "VEC3"
    },
    {
      "bufferView": 2,
      "byteOffset": 240,
      "componentType": 5126,
      "count": 4,
      "max": [
        1.0,
        0.0,
        0.0
      ],
      "min": [
        1.0,
        0.0,
        0.0
      ],
      "type": "VEC3"
    },
    {
      "bufferView": 1,
      "byteOffset": 64,
      "componentType": 5126,
      "count": 4,
      "max": [
        0.5553709864616394,
        0.4636009931564331
      ],
      "min": [
        0.4843890070915222,
        0.43264099955558777
      ],
      "type": "VEC2"
    },
    {
      "bufferView": 0,
      "byteOffset": 48,
      "componentType": 5125,
      "count": 6,
      "type": "SCALAR"
    },
    {
      "bufferView": 2,
      "byteOffset": 288,
      "componentType": 5126,
      "count": 1020,
      "max": [
        -1.5972599983215332,
        -0.5166789889335632,
        -0.3543049991130829
      ],
      "min": [
        -1.600172996520996,
        -0.5313209891319275,
        -0.3824700117111206
      ],
      "type": "VEC3"
    },
    {
      "bufferView": 2,
      "byteOffset": 12528,
      "componentType": 5126,
      "count": 1020,
      "max": [
        1.0,
        1.0,
        1.0
      ],
      "min": [
        -0.002062300220131874,
        -1.0,
        -1.0
      ],
      "type": "VEC3"
    },
    {
      "bufferView": 1,
      "byteOffset": 96,
      "componentType": 5126,
      "count": 1020,
      "max": [
        0.7014650106430054,
        0.9628559947013855
      ],
      "min": [
        0.05725200101733208,
        0.058605000376701355
      ],
      "type": "VEC2"
    },
    {
      "bufferView": 0,
      "byteOffset": 72,
      "componentType": 5125,
      "count": 4158,
      "type": "SCALAR"
    },
    {
      "bufferView": 2,
      "byteOffset": 24768,
      "componentType": 5126,
      "count": 636,
      "max": [
        -1.5629589557647705,
        0.5542539954185486,
        0.05567700043320656
      ],
      "min": [
        -2.0252609252929688,
        -0.5542539954185486,
        -0.8046950101852417
      ],
      "type": "VEC3"
    },
    {
      "bufferView": 2,
      "byteOffset": 32400,
      "componentType": 5126,
      "count": 636,
      "max": [
        1.0,
        1.0,
        1.0
      ],
      "min": [
        -0.9999999403953552,
        -1.0,
        -0.9733348488807678
      ],
      "type": "VEC3"
    },
    {
      "bufferView": 1,
      "byteOffset": 8256,
      "componentType": 5126,
      "count": 636,
      "max": [
        0.981037974357605,
        0.9217320084571838
      ],
      "min": [
        0.014778999611735344,
        0.5727390050888062
      ],
      "type": "VEC2"
    },
    {
      "bufferView": 0,
      "byteOffset": 16704,
      "componentType": 5125,
      "count": 2064,
      "type": "SCALAR"
    },
    {
      "bufferView": 2,
      "byteOffset": 40032,
      "componentType": 5126,
      "count": 70,
      "max": [
        -1.5465409755706787,
        0.16282199323177338,
        -0.332643985748291
      ],
      "min": [
        -1.6035480499267578,
        0.1416189968585968,
        -0.33839601278305054
      ],
      "type": "VEC3"
    },
    {
      "bufferView": 2,
      "byteOffset": 40872,
      "componentType": 5126,
      "count": 70,
      "max": [
        1.0,
        1.0,
        0.999318540096283
      ],
      "min": [
        -1.0,
        -1.0,
        -0.999318540096283
      ],
      "type": "VEC3"
    },
    {
      "bufferView": 1,
      "byteOffset": 13344,
      "componentType": 5126,
      "count": 70,
      "max": [
        0.9106919765472412,
        0.7957950234413147
      ],
      "min": [
        0.09214799851179123,
        0.07003799825906754
      ],
      "type": "VEC2"
    },
    {
      "bufferView": 0,
      "byteOffset": 24960,
      "componentType": 5125,
      "count": 228,
      "type": "SCALAR"
    },
    {
      "bufferView": 2,
      "byteOffset": 41712,
      "componentType": 5126,
      "count": 100,
      "max": [
        -1.5677980184555054,
        0.10967499762773514,
        -0.4711430072784424
      ],
      "min": [
        -1.628250002861023,
        0.06388100236654282,
        -0.4839639961719513
      ],
      "type": "VEC3"
    },
    {
      "bufferView": 2,
      "byteOffset": 42912,
      "componentType": 5126,
      "count": 100,
      "max": [
        0.9925939440727234,
        0.9750477075576782,
        0.9999141693115234
      ],
      "min": [
        -0.9892090559005737,
        -0.9930091500282288,
        -0.9999141693115234
      ],
      "type": "VEC3"
    },
    {
      "bufferView": 1,
      "byteOffset": 13904,
      "componentType": 5126,
      "count": 100,
      "max": [
        0.9464730024337769,
        0.8115299940109253
      ],
      "min": [
        0.05528600141406059,
        0.12764300405979156
      ],
      "type": "VEC2"
    },
    {
      "bufferView": 0,
      "byteOffset": 25872,
      "componentType": 5125,
      "count": 486,
      "type": "SCALAR"
    },
    {
      "bufferView": 2,
      "byteOffset": 44112,
      "componentType": 5126,
      "count": 137,
      "max": [
        -1.233214020729065,
        4.813866138458252,
        -0.15444399416446686
      ],
      "min": [
        -1.263612985610962,
        4.778600215911865,
        -0.19630800187587738
      ],
      "type": "VEC3"
    },
    {
      "bufferView": 2,
      "byteOffset": 45756,
      "componentType": 5126,
      "count": 137,
      "max": [
        -0.012813654728233814,
        0.9936685562133789,
        0.9984567761421204
      ],
      "min": [
        -0.9940920472145081,
        -0.24312900006771088,
        -0.9529142379760742
      ],
      "type": "VEC3"
    },
    {
      "bufferView": 1,
      "byteOffset": 14704,
      "componentType": 5126,
      "count": 137,
      "max": [
        1.0,
        1.0
      ],
      "min": [
        0.0,
        0.0
      ],
      "type": "VEC2"
    },
    {
      "bufferView": 0,
      "byteOffset": 27816,
      "componentType": 5125,
      "count": 720,
      "type": "SCALAR"
    },
    {
      "bufferView": 2,
      "byteOffset": 47400,
      "componentType": 5126,
      "count": 2303,
      "max": [
        3.5603699684143066,
        4.792273998260498,
        1.6109960079193115
      ],
      "min": [
        -3.1484479904174805,
        -4.792273998260498,
        -1.1793639659881592
      ],
      "type": "VEC3"
    },
    {
      "bufferView": 2,
      "byteOffset": 75036,
      "componentType": 5126,
      "count": 2303,
      "max": [
        1.0,
        1.0,
        1.0
      ],
      "min": [
        -1.0,
        -1.0,
        -1.0
      ],
      "type": "VEC3"
    },
    {
      "bufferView": 1,
      "byteOffset": 15800,
      "componentType": 5126,
      "count": 2303,
      "max": [
        0.9751399755477905,
        0.9773769974708557
      ],
      "min": [
        0.02672700025141239,
        0.019178999587893486
      ],
      "type": "VEC2"
    },
    {
      "bufferView": 0,
      "byteOffset": 30696,
      "componentType": 5125,
      "count": 7713,
      "type": "SCALAR"
    },
    {
      "bufferView": 2,
      "byteOffset": 102672,
      "componentType": 5126,
      "count": 3718,
      "max": [
        3.285876989364624,
        1.5270600318908691,
        1.6109960079193115
      ],
      "min": [
        -3.148448944091797,
        -1.5818190574645996,
        -1.3085989952087402
      ],
      "type": "VEC3"
    },
    {
      "bufferView": 2,
      "byteOffset": 147288,
      "componentType": 5126,
      "count": 3718,
      "max": [
        1.0,
        1.0,
        1.0
      ],
      "min": [
        -0.9999570846557617,
        -1.0,
        -1.0
      ],
      "type": "VEC3"
    },
    {
      "bufferView": 1,
      "byteOffset": 34224,
      "componentType": 5126,
      "count": 3718,
      "max": [
        0.9842290282249451,
        0.976082980632782
      ],
      "min": [
        0.013375000096857548,
        0.0022929999977350235
      ],
      "type": "VEC2"
    },
    {
      "bufferView": 0,
      "byteOffset": 61548,
      "componentType": 5125,
      "count": 13152,
      "type": "SCALAR"
    },
    {
      "bufferView": 2,
      "byteOffset": 191904,
      "componentType": 5126,
      "count": 2541,
      "max": [
        0.5113419890403748,
        0.4612799882888794,
        0.2268339991569519
      ],
      "min": [
        -2.809238910675049,
        -2.6185929775238037,
        -1.4261419773101807
      ],
      "type": "VEC3"
    },
    {
      "bufferView": 2,
      "byteOffset": 222396,
      "componentType": 5126,
      "count": 2541,
      "max": [
        0.9999931454658508,
        1.0,
        0.9999653697013855
      ],
      "min": [
        -1.0,
        -1.0,
        -0.9999648928642273
      ],
      "type": "VEC3"
    },
    {
      "bufferView": 1,
      "byteOffset": 63968,
      "componentType": 5126,
      "count": 2541,
      "max": [
        0.9961159825325012,
        0.3749139904975891
      ],
      "min": [
        0.35710400342941284,
        0.008898000232875347
      ],
      "type": "VEC2"
    },
    {
      "bufferView": 0,
      "byteOffset": 114156,
      "componentType": 5125,
      "count": 9870,
      "type": "SCALAR"
    },
    {
      "bufferView": 2,
      "byteOffset": 252888,
      "componentType": 5126,
      "count": 2995,
      "max": [
        3.536402940750122,
        1.880849003791809,
        0.005969999823719263
      ],
      "min": [
        -1.0261080265045166,
        -1.880849003791809,
        -1.4400969743728638
      ],
      "type": "VEC3"
    },
    {
      "bufferView": 2,
      "byteOffset": 288828,
      "componentType": 5126,
      "count": 2995,
      "max": [
        0.9995142221450806,
        1.0,
        0.9999718070030212
      ],
      "min": [
        -1.0,
        -1.0,
        -1.0
      ],
      "type": "VEC3"
    },
    {
      "bufferView": 1,
      "byteOffset": 84296,
      "componentType": 5126,
      "count": 2995,
      "max": [
        0.9961159825325012,
        0.5632349848747253
      ],
      "min": [
        0.708076000213623,
        0.008898000232875347
      ],
      "type": "VEC2"
    },
    {
      "bufferView": 0,
      "byteOffset": 153636,
      "componentType": 5125,
      "count": 12222,
      "type": "SCALAR"
    },
    {
      "bufferView": 2,
      "byteOffset": 324768,
      "componentType": 5126,
      "count": 2497,
      "max": [
        0.12006799876689911,
        0.7177810072898865,
        0.778344988822937
      ],
      "min": [
        -3.5416970252990723,
        -0.26632601022720337,
        -1.11319100856781
      ],
      "type": "VEC3"
    },
    {
      "bufferView": 2,
      "byteOffset": 354732,
      "componentType": 5126,
      "count": 2497,
      "max": [
        1.0,
        0.9999958276748657,
        1.0
      ],
      "min": [
        -1.0,
        -0.9999958276748657,
        -1.0
      ],
      "type": "VEC3"
    },
    {
      "bufferView": 1,
      "byteOffset": 108256,
      "componentType": 5126,
      "count": 2497,
      "max": [
        0.9891210198402405,
        0.9812710285186768
      ],
      "min": [
        0.009856999851763248,
        0.003889000043272972
      ],
      "type": "VEC2"
    },
    {
      "bufferView": 0,
      "byteOffset": 202524,
      "componentType": 5125,
      "count": 12786,
      "type": "SCALAR"
    },
    {
      "bufferView": 2,
      "byteOffset": 384696,
      "componentType": 5126,
      "count": 32,
      "max": [
        -1.5986659526824951,
        0.2791750133037567,
        -0.006550000049173832
      ],
      "min": [
        -1.5989899635314941,
        -0.2946609854698181,
        -0.03444800153374672
      ],
      "type": "VEC3"
    },
    {
      "bufferView": 2,
      "byteOffset": 385080,
      "componentType": 5126,
      "count": 32,
      "max": [
        1.0,
        0.0,
        0.0
      ],
      "min": [
        1.0,
        0.0,
        0.0
      ],
      "type": "VEC3"
    },
    {
      "bufferView": 1,
      "byteOffset": 128232,
      "componentType": 5126,
      "count": 32,
      "max": [
        1.0,
        1.0
      ],
      "min": [
        0.2426539957523346,
        0.3093770146369934
      ],
      "type": "VEC2"
    },
    {
      "bufferView": 0,
      "byteOffset": 253668,
      "componentType": 5125,
      "count": 48,
      "type": "SCALAR"
    },
    {
      "bufferView": 2,
      "byteOffset": 385464,
      "componentType": 5126,
      "count": 311,
      "max": [
        -1.5956699848175049,
        0.4031989872455597,
        0.004608999937772751
      ],
      "min": [
        -1.602565050125122,
        0.34480100870132446,
        -0.05378900095820427
      ],
      "type": "VEC3"
    },
    {
      "bufferView": 2,
      "byteOffset": 389196,
      "componentType": 5126,
      "count": 311,
      "max": [
        1.0,
        0.9994615912437439,
        0.9994634985923767
      ],
      "min": [
        0.0,
        -0.9994611144065857,
        -0.9994611740112305
      ],
      "type": "VEC3"
    },
    {
      "bufferView": 1,
      "byteOffset": 128488,
      "componentType": 5126,
      "count": 311,
      "max": [
        0.9510380029678345,
        0.9602620005607605
      ],
      "min": [
        0.049550000578165054,
        0.05877399817109108
      ],
      "type": "VEC2"
    },
    {
      "bufferView": 0,
      "byteOffset": 253860,
      "componentType": 5125,
      "count": 978,
      "type": "SCALAR"
    },
    {
      "bufferView": 2,
      "byteOffset": 392928,
      "componentType": 5126,
      "count": 483,
      "max": [
        -1.5868170261383057,
        -0.4200049936771393,
        -0.07959499955177307
      ],
      "min": [
        -1.6006989479064941,
        -0.5099959969520569,
        -0.16958500444889069
      ],
      "type": "VEC3"
    },
    {
      "bufferView": 2,
      "byteOffset": 398724,
      "componentType": 5126,
      "count": 483,
      "max": [
        1.0,
        1.0,
        1.0
      ],
      "min": [
        0.0,
        -1.0,
        -1.0
      ],
      "type": "VEC3"
    },
    {
      "bufferView": 1,
      "byteOffset": 130976,
      "componentType": 5126,
      "count": 483,
      "max": [
        0.964273989200592,
        1.0
      ],
      "min": [
        0.0,
        0.021209999918937683
      ],
      "type": "VEC2"
    },
    {
      "bufferView": 0,
      "byteOffset": 257772,
      "componentType": 5125,
      "count": 1161,
      "type": "SCALAR"
    },
    {
      "bufferView": 2,
      "byteOffset": 404520,
      "componentType": 5126,
      "count": 174,
      "max": [
        -1.5922340154647827,
        0.07848100364208221,
        -0.08396399766206741
      ],
      "min": [
        -1.5931719541549683,
        -0.07848100364208221,
        -0.12237600237131119
      ],
      "type": "VEC3"
    },
    {
      "bufferView": 2,
      "byteOffset": 406608,
      "componentType": 5126,
      "count": 174,
      "max": [
        1.0,
        0.0,
        0.0
      ],
      "min": [
        0.9999999403953552,
        0.0,
        0.0
      ],
      "type": "VEC3"
    },
    {
      "bufferView": 1,
      "byteOffset": 134840,
      "componentType": 5126,
      "count": 174,
      "max": [
        0.9388790130615234,
        0.9265990257263184
      ],
      "min": [
        0.019531000405550003,
        0.0039059999398887157
      ],
      "type": "VEC2"
    },
    {
      "bufferView": 0,
      "byteOffset": 262416,
      "componentType": 5125,
      "count": 330,
      "type": "SCALAR"
    },
    {
      "bufferView": 2,
      "byteOffset": 408696,
      "componentType": 5126,
      "count": 352,
      "max": [
        -1.5824480056762695,
        0.08017999678850174,
        -0.08228299766778946
      ],
      "min": [
        -1.6086699962615967,
        -0.08017999678850174,
        -0.15889699757099152
      ],
      "type": "VEC3"
    },
    {
      "bufferView": 2,
      "byteOffset": 412920,
      "componentType": 5126,
      "count": 352,
      "max": [
        1.0,
        1.0,
        1.0
      ],
      "min": [
        0.0,
        -1.0,
        -1.0
      ],
      "type": "VEC3"
    },
    {
      "bufferView": 1,
      "byteOffset": 136232,
      "componentType": 5126,
      "count": 352,
      "max": [
        0.9960799813270569,
        0.9937499761581421
      ],
      "min": [
        0.006827999837696552,
        0.16093799471855164
      ],
      "type": "VEC2"
    },
    {
      "bufferView": 0,
      "byteOffset": 263736,
      "componentType": 5125,
      "count": 600,
      "type": "SCALAR"
    },
    {
      "bufferView": 2,
      "byteOffset": 417144,
      "componentType": 5126,
      "count": 509,
      "max": [
        -1.5826059579849243,
        0.07982999831438065,
        -0.22172799706459045
      ],
      "min": [
        -1.5955270528793335,
        -0.07982999831438065,
        -0.2546919882297516
      ],
      "type": "VEC3"
    },
    {
      "bufferView": 2,
      "byteOffset": 423252,
      "componentType": 5126,
      "count": 509,
      "max": [
        1.0,
        1.0,
        1.0
      ],
      "min": [
        -0.7051938772201538,
        -1.0,
        -1.0
      ],
      "type": "VEC3"
    },
    {
      "bufferView": 1,
      "byteOffset": 139048,
      "componentType": 5126,
      "count": 509,
      "max": [
        0.994363009929657,
        0.9932259917259216
      ],
      "min": [
        0.010572999715805054,
        0.0039059999398887157
      ],
      "type": "VEC2"
    },
    {
      "bufferView": 0,
      "byteOffset": 266136,
      "componentType": 5125,
      "count": 828,
      "type": "SCALAR"
    },
    {
      "bufferView": 2,
      "byteOffset": 429360,
      "componentType": 5126,
      "count": 3402,
      "max": [
        -1.5726699829101563,
        0.02850000001490116,
        0.11691000312566757
      ],
      "min": [
        -1.6326700448989868,
        -0.02850000001490116,
        0.04878100007772446
      ],
      "type": "VEC3"
    },
    {
      "bufferView": 2,
      "byteOffset": 470184,
      "componentType": 5126,
      "count": 3402,
      "max": [
        1.0,
        1.0,
        1.0
      ],
      "min": [
        -1.0,
        -1.0,
        -1.0
      ],
      "type": "VEC3"
    },
    {
      "bufferView": 1,
      "byteOffset": 143120,
      "componentType": 5126,
      "count": 3402,
      "max": [
        1.0,
        1.0002310276031494
      ],
      "min": [
        0.0,
        0.0
      ],
      "type": "VEC2"
    },
    {
      "bufferView": 0,
      "byteOffset": 269448,
      "componentType": 5125,
      "count": 6801,
      "type": "SCALAR"
    },
    {
      "bufferView": 2,
      "byteOffset": 511008,
      "componentType": 5126,
      "count": 3088,
      "max": [
        -0.09888400137424469,
        0.5005170106887817,
        0.12883900105953217
      ],
      "min": [
        -1.3806450366973877,
        -0.49463900923728943,
        -0.6673150062561035
      ],
      "type": "VEC3"
    },
    {
      "bufferView": 2,
      "byteOffset": 548064,
      "componentType": 5126,
      "count": 3088,
      "max": [
        0.9999406337738037,
        1.0,
        1.0
      ],
      "min": [
        -1.0,
        -1.0,
        -1.0
      ],
      "type": "VEC3"
    },
    {
      "bufferView": 1,
      "byteOffset": 170336,
      "componentType": 5126,
      "count": 3088,
      "max": [
        0.9389989972114563,
        0.9807050228118896
      ],
      "min": [
        0.01584400050342083,
        0.016085999086499214
      ],
      "type": "VEC2"
    },
    {
      "bufferView": 0,
      "byteOffset": 296652,
      "componentType": 5125,
      "count": 11676,
      "type": "SCALAR"
    },
    {
      "bufferView": 2,
      "byteOffset": 585120,
      "componentType": 5126,
      "count": 3144,
      "max": [
        -0.1911879926919937,
        0.5005170106887817,
        -0.34131699800491333
      ],
      "min": [
        -1.335387945175171,
        -0.5001909732818604,
        -0.6673150062561035
      ],
      "type": "VEC3"
    },
    {
      "bufferView": 2,
      "byteOffset": 622848,
      "componentType": 5126,
      "count": 3144,
      "max": [
        0.999929666519165,
        1.0,
        0.9999996423721313
      ],
      "min": [
        -0.999769389629364,
        -1.0,
        -0.9983726143836975
      ],
      "type": "VEC3"
    },
    {
      "bufferView": 1,
      "byteOffset": 195040,
      "componentType": 5126,
      "count": 3144,
      "max": [
        0.9389989972114563,
        0.7334439754486084
      ],
      "min": [
        0.65038001537323,
        0.21968099474906921
      ],
      "type": "VEC2"
    },
    {
      "bufferView": 0,
      "byteOffset": 343356,
      "componentType": 5125,
      "count": 9900,
      "type": "SCALAR"
    },
    {
      "bufferView": 2,
      "byteOffset": 660576,
      "componentType": 5126,
      "count": 966,
      "max": [
        -1.5846799612045288,
        0.33875200152397156,
        0.025741999968886375
      ],
      "min": [
        -1.6031960248947144,
        -0.312283992767334,
        -0.06829400360584259
      ],
      "type": "VEC3"
    },
    {
      "bufferView": 2,
      "byteOffset": 672168,
      "componentType": 5126,
      "count": 966,
      "max": [
        1.0,
        1.0,
        1.0
      ],
      "min": [
        0.0,
        -1.0,
        -1.0
      ],
      "type": "VEC3"
    },
    {
      "bufferView": 1,
      "byteOffset": 220192,
      "componentType": 5126,
      "count": 966,
      "max": [
        1.0,
        1.0000100135803223
      ],
      "min": [
        0.0,
        0.0
      ],
      "type": "VEC2"
    },
    {
      "bufferView": 0,
      "byteOffset": 382956,
      "componentType": 5125,
      "count": 2910,
      "type": "SCALAR"
    },
    {
      "bufferView": 2,
      "byteOffset": 683760,
      "componentType": 5126,
      "count": 379,
      "max": [
        -1.5956599712371826,
        -0.4208579957485199,
        0.02155200019478798
      ],
      "min": [
        -1.6013209819793701,
        -0.5091419816017151,
        -0.0667319968342781
      ],
      "type": "VEC3"
    },
    {
      "bufferView": 2,
      "byteOffset": 688308,
      "componentType": 5126,
      "count": 379,
      "max": [
        1.0,
        1.0,
        0.9990400671958923
      ],
      "min": [
        0.0,
        -1.0,
        -0.9994944334030151
      ],
      "type": "VEC3"
    },
    {
      "bufferView": 1,
      "byteOffset": 227920,
      "componentType": 5126,
      "count": 379,
      "max": [
        0.9451839923858643,
        0.9522420167922974
      ],
      "min": [
        0.03915800154209137,
        0.026475999504327774
      ],
      "type": "VEC2"
    },
    {
      "bufferView": 0,
      "byteOffset": 394596,
      "componentType": 5125,
      "count": 1140,
      "type": "SCALAR"
    },
    {
      "bufferView": 2,
      "byteOffset": 692856,
      "componentType": 5126,
      "count": 2475,
      "max": [
        -1.5894140005111694,
        0.5164999961853027,
        -0.3080900013446808
      ],
      "min": [
        -1.6007260084152222,
        0.4235000014305115,
        -0.3470900058746338
      ],
      "type": "VEC3"
    },
    {
      "bufferView": 2,
      "byteOffset": 722556,
      "componentType": 5126,
      "count": 2475,
      "max": [
        1.0,
        0.9999992847442627,
        0.995616614818573
      ],
      "min": [
        -1.0,
        -0.9999998211860657,
        -0.9836945533752441
      ],
      "type": "VEC3"
    },
    {
      "bufferView": 1,
      "byteOffset": 230952,
      "componentType": 5126,
      "count": 2475,
      "max": [
        0.9794080257415771,
        0.8829590082168579
      ],
      "min": [
        0.1818069964647293,
        -0.1493539959192276
      ],
      "type": "VEC2"
    },
    {
      "bufferView": 0,
      "byteOffset": 399156,
      "componentType": 5125,
      "count": 6399,
      "type": "SCALAR"
    },
    {
      "bufferView": 2,
      "byteOffset": 752256,
      "componentType": 5126,
      "count": 308,
      "max": [
        -1.5986700057983398,
        0.19917400181293488,
        -0.07539799809455872
      ],
      "min": [
        -1.6018610000610352,
        0.15082600712776184,
        -0.12374600023031235
      ],
      "type": "VEC3"
    },
    {
      "bufferView": 2,
      "byteOffset": 755952,
      "componentType": 5126,
      "count": 308,
      "max": [
        1.0,
        1.0,
        0.9990397095680237
      ],
      "min": [
        0.0,
        -1.0,
        -0.9990396499633789
      ],
      "type": "VEC3"
    },
    {
      "bufferView": 1,
      "byteOffset": 250752,
      "componentType": 5126,
      "count": 308,
      "max": [
        1.0,
        1.0
      ],
      "min": [
        0.0,
        0.0
      ],
      "type": "VEC2"
    },
    {
      "bufferView": 0,
      "byteOffset": 424752,
      "componentType": 5125,
      "count": 1146,
      "type": "SCALAR"
    },
    {
      "bufferView": 2,
      "byteOffset": 759648,
      "componentType": 5126,
      "count": 543,
      "max": [
        -1.5956699848175049,
        -0.07519999891519547,
        -0.32078999280929565
      ],
      "min": [
        -1.5996700525283813,
        -0.12080000340938568,
        -0.3663899898529053
      ],
      "type": "VEC3"
    },
    {
      "bufferView": 2,
      "byteOffset": 766164,
      "componentType": 5126,
      "count": 543,
      "max": [
        1.0,
        1.0,
        0.9994622468948364
      ],
      "min": [
        0.0,
        -1.0,
        -1.0
      ],
      "type": "VEC3"
    },
    {
      "bufferView": 1,
      "byteOffset": 253216,
      "componentType": 5126,
      "count": 543,
      "max": [
        0.9997450113296509,
        0.9997450113296509
      ],
      "min": [
        0.00025499999173916876,
        0.00025499999173916876
      ],
      "type": "VEC2"
    },
    {
      "bufferView": 0,
      "byteOffset": 429336,
      "componentType": 5125,
      "count": 1626,
      "type": "SCALAR"
    },
    {
      "bufferView": 2,
      "byteOffset": 772680,
      "componentType": 5126,
      "count": 848,
      "max": [
        -1.497418999671936,
        0.10665600001811981,
        -0.30815398693084717
      ],
      "min": [
        -1.7209949493408203,
        -0.0733259990811348,
        -0.35040199756622314
      ],
      "type": "VEC3"
    },
    {
      "bufferView": 2,
      "byteOffset": 782856,
      "componentType": 5126,
      "count": 848,
      "max": [
        1.0,
        1.0,
        1.0
      ],
      "min": [
        -1.0,
        -1.0,
        -1.0
      ],
      "type": "VEC3"
    },
    {
      "bufferView": 1,
      "byteOffset": 257560,
      "componentType": 5126,
      "count": 848,
      "max": [
        0.9529950022697449,
        0.8669880032539368
      ],
      "min": [
        0.1516450047492981,
        0.03612799942493439
      ],
      "type": "VEC2"
    },
    {
      "bufferView": 0,
      "byteOffset": 435840,
      "componentType": 5125,
      "count": 3831,
      "type": "SCALAR"
    },
    {
      "bufferView": 2,
      "byteOffset": 793032,
      "componentType": 5126,
      "count": 570,
      "max": [
        -1.5838539600372314,
        -0.2089969962835312,
        -0.1858150064945221
      ],
      "min": [
        -1.600672960281372,
        -0.28900301456451416,
        -0.26648199558258057
      ],
      "type": "VEC3"
    },
    {
      "bufferView": 2,
      "byteOffset": 799872,
      "componentType": 5126,
      "count": 570,
      "max": [
        1.0,
        1.0,
        1.0
      ],
      "min": [
        -3.088499170189607e-06,
        -1.0,
        -0.9999999403953552
      ],
      "type": "VEC3"
    },
    {
      "bufferView": 1,
      "byteOffset": 264344,
      "componentType": 5126,
      "count": 570,
      "max": [
        0.9880099892616272,
        0.7269089818000793
      ],
      "min": [
        0.05466200038790703,
        0.003318999893963337
      ],
      "type": "VEC2"
    },
    {
      "bufferView": 0,
      "byteOffset": 451164,
      "componentType": 5125,
      "count": 1602,
      "type": "SCALAR"
    },
    {
      "bufferView": 2,
      "byteOffset": 806712,
      "componentType": 5126,
      "count": 246,
      "max": [
        -1.5955719947814941,
        0.27443501353263855,
        -0.3231549859046936
      ],
      "min": [
        -1.6024999618530273,
        0.21356500685214996,
        -0.3840250074863434
      ],
      "type": "VEC3"
    },
    {
      "bufferView": 2,
      "byteOffset": 809664,
      "componentType": 5126,
      "count": 246,
      "max": [
        1.0,
        0.9994614720344543,
        0.9999999403953552
      ],
      "min": [
        -8.103577420115471e-05,
        -1.0,
        -0.9999999403953552
      ],
      "type": "VEC3"
    },
    {
      "bufferView": 1,
      "byteOffset": 268904,
      "componentType": 5126,
      "count": 246,
      "max": [
        1.0056710243225098,
        1.0163209438323975
      ],
      "min": [
        -0.005671000108122826,
        0.004978000186383724
      ],
      "type": "VEC2"
    },
    {
      "bufferView": 0,
      "byteOffset": 457572,
      "componentType": 5125,
      "count": 711,
      "type": "SCALAR"
    },
    {
      "bufferView": 2,
      "byteOffset": 812616,
      "componentType": 5126,
      "count": 308,
      "max": [
        -1.5986700057983398,
        0.2521739900112152,
        -0.07539799809455872
      ],
      "min": [
        -1.6018610000610352,
        0.20382599532604218,
        -0.12374600023031235
      ],
      "type": "VEC3"
    },
    {
      "bufferView": 2,
      "byteOffset": 816312,
      "componentType": 5126,
      "count": 308,
      "max": [
        1.0,
        1.0,
        0.9990397095680237
      ],
      "min": [
        0.0,
        -1.0,
        -0.9990396499633789
      ],
      "type": "VEC3"
    },
    {
      "bufferView": 1,
      "byteOffset": 270872,
      "componentType": 5126,
      "count": 308,
      "max": [
        1.0,
        1.0
      ],
      "min": [
        0.0,
        0.0
      ],
      "type": "VEC2"
    },
    {
      "bufferView": 0,
      "byteOffset": 460416,
      "componentType": 5125,
      "count": 1146,
      "type": "SCALAR"
    },
    {
      "bufferView": 2,
      "byteOffset": 820008,
      "componentType": 5126,
      "count": 1081,
      "max": [
        -1.5386769771575928,
        -0.17073599994182587,
        -0.17402799427509308
      ],
      "min": [
        -1.6073729991912842,
        -0.19473600387573242,
        -0.2506270110607147
      ],
      "type": "VEC3"
    },
    {
      "bufferView": 2,
      "byteOffset": 832980,
      "componentType": 5126,
      "count": 1081,
      "max": [
        1.0,
        1.0,
        0.99903804063797
      ],
      "min": [
        -0.9918670058250427,
        -1.0,
        -0.9990383386611938
      ],
      "type": "VEC3"
    },
    {
      "bufferView": 1,
      "byteOffset": 273336,
      "componentType": 5126,
      "count": 1081,
      "max": [
        0.9936919808387756,
        0.9607009887695313
      ],
      "min": [
        0.01785299926996231,
        0.06619200110435486
      ],
      "type": "VEC2"
    },
    {
      "bufferView": 0,
      "byteOffset": 465000,
      "componentType": 5125,
      "count": 5592,
      "type": "SCALAR"
    },
    {
      "bufferView": 2,
      "byteOffset": 845952,
      "componentType": 5126,
      "count": 558,
      "max": [
        -1.5906699895858765,
        0.34573400020599365,
        -0.08285599946975708
      ],
      "min": [
        -1.6031980514526367,
        0.26226601004600525,
        -0.16632400453090668
      ],
      "type": "VEC3"
    },
    {
      "bufferView": 2,
      "byteOffset": 852648,
      "componentType": 5126,
      "count": 558,
      "max": [
        1.0,
        1.0,
        1.0
      ],
      "min": [
        -1.2156213415437378e-05,
        -1.0,
        -1.0
      ],
      "type": "VEC3"
    },
    {
      "bufferView": 1,
      "byteOffset": 281984,
      "componentType": 5126,
      "count": 558,
      "max": [
        0.9641050100326538,
        0.9619410037994385
      ],
      "min": [
        0.05187299847602844,
        0.044470999389886856
      ],
      "type": "VEC2"
    },
    {
      "bufferView": 0,
      "byteOffset": 487368,
      "componentType": 5125,
      "count": 1374,
      "type": "SCALAR"
    },
    {
      "bufferView": 2,
      "byteOffset": 859344,
      "componentType": 5126,
      "count": 1036,
      "max": [
        0.12494000047445297,
        1.4001309871673584,
        0.3653219938278198
      ],
      "min": [
        -2.1393299102783203,
        -0.6102849841117859,
        -0.7319030165672302
      ],
      "type": "VEC3"
    },
    {
      "bufferView": 2,
      "byteOffset": 871776,
      "componentType": 5126,
      "count": 1036,
      "max": [
        1.0,
        1.0,
        1.0
      ],
      "min": [
        -1.0,
        -0.9989162087440491,
        -0.9999988079071045
      ],
      "type": "VEC3"
    },
    {
      "bufferView": 1,
      "byteOffset": 286448,
      "componentType": 5126,
      "count": 1036,
      "max": [
        0.9918259978294373,
        0.9929010272026062
      ],
      "min": [
        0.024731000885367393,
        0.0031769999768584967
      ],
      "type": "VEC2"
    },
    {
      "bufferView": 0,
      "byteOffset": 492864,
      "componentType": 5125,
      "count": 3210,
      "type": "SCALAR"
    },
    {
      "bufferView": 2,
      "byteOffset": 884208,
      "componentType": 5126,
      "count": 842,
      "max": [
        -1.5836520195007324,
        0.0793289989233017,
        0.012090999633073807
      ],
      "min": [
        -1.601631999015808,
        -0.0793289989233017,
        -0.029270999133586884
      ],
      "type": "VEC3"
    },
    {
      "bufferView": 2,
      "byteOffset": 894312,
      "componentType": 5126,
      "count": 842,
      "max": [
        1.0,
        1.0,
        1.0
      ],
      "min": [
        -0.9250907897949219,
        -1.0,
        -1.0
      ],
      "type": "VEC3"
    },
    {
      "bufferView": 1,
      "byteOffset": 294736,
      "componentType": 5126,
      "count": 842,
      "max": [
        0.9999290108680725,
        1.0
      ],
      "min": [
        0.0,
        0.003596999915316701
      ],
      "type": "VEC2"
    },
    {
      "bufferView": 0,
      "byteOffset": 505704,
      "componentType": 5125,
      "count": 2484,
      "type": "SCALAR"
    },
    {
      "bufferView": 2,
      "byteOffset": 904416,
      "componentType": 5126,
      "count": 1116,
      "max": [
        -1.585847020149231,
        -0.3128170073032379,
        0.026562999933958054
      ],
      "min": [
        -1.60275399684906,
        -0.4131830036640167,
        -0.16861100494861603
      ],
      "type": "VEC3"
    },
    {
      "bufferView": 2,
      "byteOffset": 917808,
      "componentType": 5126,
      "count": 1116,
      "max": [
        1.0,
        1.0,
        1.0
      ],
      "min": [
        0.0,
        -1.0,
        -1.0
      ],
      "type": "VEC3"
    },
    {
      "bufferView": 1,
      "byteOffset": 301472,
      "componentType": 5126,
      "count": 1116,
      "max": [
        0.9511719942092896,
        0.9921879768371582
      ],
      "min": [
        0.006062000058591366,
        0.006670000031590462
      ],
      "type": "VEC2"
    },
    {
      "bufferView": 0,
      "byteOffset": 515640,
      "componentType": 5125,
      "count": 2130,
      "type": "SCALAR"
    },
    {
      "bufferView": 2,
      "byteOffset": 931200,
      "componentType": 5126,
      "count": 632,
      "max": [
        -1.581650972366333,
        0.07935000211000443,
        -0.03589000180363655
      ],
      "min": [
        -1.686033010482788,
        -0.07935000211000443,
        -0.07728999853134155
      ],
      "type": "VEC3"
    },
    {
      "bufferView": 2,
      "byteOffset": 938784,
      "componentType": 5126,
      "count": 632,
      "max": [
        1.0,
        1.0,
        1.0
      ],
      "min": [
        0.0,
        -1.0,
        -1.0
      ],
      "type": "VEC3"
    },
    {
      "bufferView": 1,
      "byteOffset": 310400,
      "componentType": 5126,
      "count": 632,
      "max": [
        0.9962729811668396,
        0.9919639825820923
      ],
      "min": [
        0.008828000165522099,
        0.032186999917030334
      ],
      "type": "VEC2"
    },
    {
      "bufferView": 0,
      "byteOffset": 524160,
      "componentType": 5125,
      "count": 1290,
      "type": "SCALAR"
    },
    {
      "bufferView": 2,
      "byteOffset": 946368,
      "componentType": 5126,
      "count": 738,
      "max": [
        -1.5687559843063354,
        0.07900000363588333,
        -0.16309000551700592
      ],
      "min": [
        -1.6056699752807617,
        -0.07900000363588333,
        -0.2140900045633316
      ],
      "type": "VEC3"
    },
    {
      "bufferView": 2,
      "byteOffset": 955224,
      "componentType": 5126,
      "count": 738,
      "max": [
        1.0,
        1.0,
        1.0
      ],
      "min": [
        0.0,
        -1.0,
        -1.0
      ],
      "type": "VEC3"
    },
    {
      "bufferView": 1,
      "byteOffset": 315456,
      "componentType": 5126,
      "count": 738,
      "max": [
        0.9180470108985901,
        0.5441210269927979
      ],
      "min": [
        0.0014590000500902534,
        0.0023129999171942472
      ],
      "type": "VEC2"
    },
    {
      "bufferView": 0,
      "byteOffset": 529320,
      "componentType": 5125,
      "count": 1962,
      "type": "SCALAR"
    },
    {
      "bufferView": 2,
      "byteOffset": 964080,
      "componentType": 5126,
      "count": 722,
      "max": [
        -1.577118992805481,
        -0.2295760065317154,
        -0.31862398982048035
      ],
      "min": [
        -1.6006979942321777,
        -0.2738400101661682,
        -0.35979101061820984
      ],
      "type": "VEC3"
    },
    {
      "bufferView": 2,
      "byteOffset": 972744,
      "componentType": 5126,
      "count": 722,
      "max": [
        1.0,
        0.9994628429412842,
        0.9994641542434692
      ],
      "min": [
        -0.9977579712867737,
        -0.9994632005691528,
        -0.999462366104126
      ],
      "type": "VEC3"
    },
    {
      "bufferView": 1,
      "byteOffset": 321360,
      "componentType": 5126,
      "count": 722,
      "max": [
        0.9670429825782776,
        0.9280880093574524
      ],
      "min": [
        0.04678900167346001,
        0.0820470005273819
      ],
      "type": "VEC2"
    },
    {
      "bufferView": 0,
      "byteOffset": 537168,
      "componentType": 5125,
      "count": 2964,
      "type": "SCALAR"
    },
    {
      "bufferView": 2,
      "byteOffset": 981408,
      "componentType": 5126,
      "count": 308,
      "max": [
        -1.5986700057983398,
        0.19917400181293488,
        -0.12739799916744232
      ],
      "min": [
        -1.6018610000610352,
        0.15082600712776184,
        -0.17574599385261536
      ],
      "type": "VEC3"
    },
    {
      "bufferView": 2,
      "byteOffset": 985104,
      "componentType": 5126,
      "count": 308,
      "max": [
        1.0,
        1.0,
        0.9990397095680237
      ],
      "min": [
        0.0,
        -1.0,
        -0.9990397095680237
      ],
      "type": "VEC3"
    },
    {
      "bufferView": 1,
      "byteOffset": 327136,
      "componentType": 5126,
      "count": 308,
      "max": [
        1.0,
        1.0
      ],
      "min": [
        0.0,
        0.0
      ],
      "type": "VEC2"
    },
    {
      "bufferView": 0,
      "byteOffset": 549024,
      "componentType": 5125,
      "count": 1146,
      "type": "SCALAR"
    },
    {
      "bufferView": 2,
      "byteOffset": 988800,
      "componentType": 5126,
      "count": 308,
      "max": [
        -1.5986700057983398,
        0.2521739900112152,
        -0.12739799916744232
      ],
      "min": [
        -1.6018610000610352,
        0.20382599532604218,
        -0.17574599385261536
      ],
      "type": "VEC3"
    },
    {
      "bufferView": 2,
      "byteOffset": 992496,
      "componentType": 5126,
      "count": 308,
      "max": [
        1.0,
        1.0,
        0.9990397095680237
      ],
      "min": [
        0.0,
        -1.0,
        -0.9990397095680237
      ],
      "type": "VEC3"
    },
    {
      "bufferView": 1,
      "byteOffset": 329600,
      "componentType": 5126,
      "count": 308,
      "max": [
        1.0,
        1.0
      ],
      "min": [
        0.0,
        0.0
      ],
      "type": "VEC2"
    },
    {
      "bufferView": 0,
      "byteOffset": 553608,
      "componentType": 5125,
      "count": 1146,
      "type": "SCALAR"
    },
    {
      "bufferView": 2,
      "byteOffset": 996192,
      "componentType": 5126,
      "count": 312,
      "max": [
        -1.6910779476165771,
        0.49643099308013916,
        -0.5904510021209717
      ],
      "min": [
        -1.8494880199432373,
        -0.4966239929199219,
        -0.734728991985321
      ],
      "type": "VEC3"
    },
    {
      "bufferView": 2,
      "byteOffset": 999936,
      "componentType": 5126,
      "count": 312,
      "max": [
        0.9986642599105835,
        1.0,
        0.9946088194847107
      ],
      "min": [
        -0.44640401005744934,
        -1.0,
        -0.21998582780361176
      ],
      "type": "VEC3"
    },
    {
      "bufferView": 1,
      "byteOffset": 332064,
      "componentType": 5126,
      "count": 312,
      "max": [
        0.9481620192527771,
        0.9820960164070129
      ],
      "min": [
        0.0041160001419484615,
        0.007124000228941441
      ],
      "type": "VEC2"
    },
    {
      "bufferView": 0,
      "byteOffset": 558192,
      "componentType": 5125,
      "count": 624,
      "type": "SCALAR"
    },
    {
      "bufferView": 2,
      "byteOffset": 1003680,
      "componentType": 5126,
      "count": 241,
      "max": [
        -1.5996700525283813,
        0.23499999940395355,
        0.01940999925136566
      ],
      "min": [
        -1.6106699705123901,
        0.1469999998807907,
        -0.06859000027179718
      ],
      "type": "VEC3"
    },
    {
      "bufferView": 2,
      "byteOffset": 1006572,
      "componentType": 5126,
      "count": 241,
      "max": [
        1.0,
        0.999875545501709,
        0.9998795986175537
      ],
      "min": [
        -1.0,
        -0.9998795986175537,
        -0.9998793601989746
      ],
      "type": "VEC3"
    },
    {
      "bufferView": 1,
      "byteOffset": 334560,
      "componentType": 5126,
      "count": 241,
      "max": [
        0.9312859773635864,
        0.9379929900169373
      ],
      "min": [
        0.06512299925088882,
        0.07182899862527847
      ],
      "type": "VEC2"
    },
    {
      "bufferView": 0,
      "byteOffset": 560688,
      "componentType": 5125,
      "count": 789,
      "type": "SCALAR"
    },
    {
      "bufferView": 2,
      "byteOffset": 1009464,
      "componentType": 5126,
      "count": 2827,
      "max": [
        -1.5856349468231201,
        0.3361339867115021,
        -0.306302011013031
      ],
      "min": [
        -1.6036649942398071,
        -0.5347099900245667,
        -0.35720399022102356
      ],
      "type": "VEC3"
    },
    {
      "bufferView": 2,
      "byteOffset": 1043388,
      "componentType": 5126,
      "count": 2827,
      "max": [
        1.0,
        1.0,
        1.0
      ],
      "min": [
        -0.43882694840431213,
        -1.0,
        -1.0
      ],
      "type": "VEC3"
    },
    {
      "bufferView": 1,
      "byteOffset": 336488,
      "componentType": 5126,
      "count": 2827,
      "max": [
        0.9877179861068726,
        0.9411829710006714
      ],
      "min": [
        0.02545499987900257,
        0.07097599655389786
      ],
      "type": "VEC2"
    },
    {
      "bufferView": 0,
      "byteOffset": 563844,
      "componentType": 5125,
      "count": 13122,
      "type": "SCALAR"
    },
    {
      "bufferView": 2,
      "byteOffset": 1077312,
      "componentType": 5126,
      "count": 642,
      "max": [
        -1.5856349468231201,
        -0.19161300361156464,
        -0.3361710011959076
      ],
      "min": [
        -1.6011899709701538,
        -0.19641299545764923,
        -0.3441050052642822
      ],
      "type": "VEC3"
    },
    {
      "bufferView": 2,
      "byteOffset": 1085016,
      "componentType": 5126,
      "count": 642,
      "max": [
        0.9998663663864136,
        0.9978863596916199,
        0.9955415725708008
      ],
      "min": [
        -0.4388287365436554,
        -0.9978820085525513,
        -0.9954625368118286
      ],
      "type": "VEC3"
    },
    {
      "bufferView": 1,
      "byteOffset": 359104,
      "componentType": 5126,
      "count": 642,
      "max": [
        0.48593899607658386,
        0.9411829710006714
      ],
      "min": [
        0.2182929962873459,
        0.8579580187797546
      ],
      "type": "VEC2"
    },
    {
      "bufferView": 0,
      "byteOffset": 616332,
      "componentType": 5125,
      "count": 3648,
      "type": "SCALAR"
    },
    {
      "bufferView": 2,
      "byteOffset": 1092720,
      "componentType": 5126,
      "count": 365,
      "max": [
        -1.597432017326355,
        -0.4194929897785187,
        -0.17708300054073334
      ],
      "min": [
        -1.6019680500030518,
        -0.5105069875717163,
        -0.26809701323509216
      ],
      "type": "VEC3"
    },
    {
      "bufferView": 2,
      "byteOffset": 1097100,
      "componentType": 5126,
      "count": 365,
      "max": [
        1.0,
        1.0,
        1.0
      ],
      "min": [
        0.0,
        -1.0,
        -1.0
      ],
      "type": "VEC3"
    },
    {
      "bufferView": 1,
      "byteOffset": 364240,
      "componentType": 5126,
      "count": 365,
      "max": [
        1.0,
        1.0
      ],
      "min": [
        0.0,
        0.0
      ],
      "type": "VEC2"
    },
    {
      "bufferView": 0,
      "byteOffset": 630924,
      "componentType": 5125,
      "count": 966,
      "type": "SCALAR"
    },
    {
      "bufferView": 2,
      "byteOffset": 1101480,
      "componentType": 5126,
      "count": 238,
      "max": [
        -1.5948909521102905,
        -0.22095899283885956,
        -0.07955099642276764
      ],
      "min": [
        -1.6029399633407593,
        -0.31103599071502686,
        -0.16962899267673492
      ],
      "type": "VEC3"
    },
    {
      "bufferView": 2,
      "byteOffset": 1104336,
      "componentType": 5126,
      "count": 238,
      "max": [
        1.0,
        0.9978046417236328,
        0.9998050332069397
      ],
      "min": [
        0.0,
        -0.9953242540359497,
        -0.9997235536575317
      ],
      "type": "VEC3"
    },
    {
      "bufferView": 1,
      "byteOffset": 367160,
      "componentType": 5126,
      "count": 238,
      "max": [
        1.0,
        1.0
      ],
      "min": [
        0.0,
        0.0
      ],
      "type": "VEC2"
    },
    {
      "bufferView": 0,
      "byteOffset": 634788,
      "componentType": 5125,
      "count": 702,
      "type": "SCALAR"
    },
    {
      "bufferView": 2,
      "byteOffset": 1107192,
      "componentType": 5126,
      "count": 168,
      "max": [
        -1.5933159589767456,
        0.03941499814391136,
        0.035392001271247864
      ],
      "min": [
        -1.6018069982528687,
        -0.03303999826312065,
        0.011428999714553356
      ],
      "type": "VEC3"
    },
    {
      "bufferView": 2,
      "byteOffset": 1109208,
      "componentType": 5126,
      "count": 168,
      "max": [
        1.0,
        0.9999999403953552,
        1.0
      ],
      "min": [
        -0.0004813771229237318,
        -1.0,
        -1.0
      ],
      "type": "VEC3"
    },
    {
      "bufferView": 1,
      "byteOffset": 369064,
      "componentType": 5126,
      "count": 168,
      "max": [
        0.7426220178604126,
        0.9801890254020691
      ],
      "min": [
        0.013438000343739986,
        0.055344998836517334
      ],
      "type": "VEC2"
    },
    {
      "bufferView": 0,
      "byteOffset": 637596,
      "componentType": 5125,
      "count": 324,
      "type": "SCALAR"
    },
    {
      "bufferView": 2,
      "byteOffset": 1111224,
      "componentType": 5126,
      "count": 1084,
      "max": [
        -1.4223999977111816,
        0.4675309956073761,
        -0.13185900449752808
      ],
      "min": [
        -1.8268109560012817,
        -0.46820300817489624,
        -0.24462999403476715
      ],
      "type": "VEC3"
    },
    {
      "bufferView": 2,
      "byteOffset": 1124232,
      "componentType": 5126,
      "count": 1084,
      "max": [
        0.9999999403953552,
        0.999507486820221,
        0.999654233455658
      ],
      "min": [
        -0.9952869415283203,
        -0.9995074272155762,
        -0.999507486820221
      ],
      "type": "VEC3"
    },
    {
      "bufferView": 1,
      "byteOffset": 370408,
      "componentType": 5126,
      "count": 1084,
      "max": [
        0.9840530157089233,
        0.8517550230026245
      ],
      "min": [
        0.01564200036227703,
        0.011943000368773937
      ],
      "type": "VEC2"
    },
    {
      "bufferView": 0,
      "byteOffset": 638892,
      "componentType": 5125,
      "count": 4248,
      "type": "SCALAR"
    },
    {
      "bufferView": 2,
      "byteOffset": 1137240,
      "componentType": 5126,
      "count": 266,
      "max": [
        0.5111250281333923,
        0.02630399912595749,
        0.25123900175094604
      ],
      "min": [
        -1.263612985610962,
        -4.813867092132568,
        -0.19630800187587738
      ],
      "type": "VEC3"
    },
    {
      "bufferView": 2,
      "byteOffset": 1140432,
      "componentType": 5126,
      "count": 266,
      "max": [
        0.9931240677833557,
        0.9931185841560364,
        1.0
      ],
      "min": [
        -0.9940930008888245,
        -0.9936879277229309,
        -0.952924907207489
      ],
      "type": "VEC3"
    },
    {
      "bufferView": 1,
      "byteOffset": 379080,
      "componentType": 5126,
      "count": 266,
      "max": [
        1.0,
        1.0
      ],
      "min": [
        0.0,
        0.0
      ],
      "type": "VEC2"
    },
    {
      "bufferView": 0,
      "byteOffset": 655884,
      "componentType": 5125,
      "count": 1440,
      "type": "SCALAR"
    },
    {
      "bufferView": 2,
      "byteOffset": 1143624,
      "componentType": 5126,
      "count": 579,
      "max": [
        -1.5726699829101563,
        0.40283700823783875,
        0.10841000080108643
      ],
      "min": [
        -3.1257550716400146,
        -0.5086320042610168,
        -0.5257980227470398
      ],
      "type": "VEC3"
    },
    {
      "bufferView": 2,
      "byteOffset": 1150572,
      "componentType": 5126,
      "count": 579,
      "max": [
        1.0,
        0.07242252677679062,
        0.0
      ],
      "min": [
        -0.9833919405937195,
        -0.07242253422737122,
        -0.2638803720474243
      ],
      "type": "VEC3"
    },
    {
      "bufferView": 1,
      "byteOffset": 381208,
      "componentType": 5126,
      "count": 579,
      "max": [
        1.0,
        1.0
      ],
      "min": [
        0.0,
        0.0
      ],
      "type": "VEC2"
    },
    {
      "bufferView": 0,
      "byteOffset": 661644,
      "componentType": 5125,
      "count": 1656,
      "type": "SCALAR"
    },
    {
      "bufferView": 2,
      "byteOffset": 1157520,
      "componentType": 5126,
      "count": 203,
      "max": [
        -0.08987200260162354,
        4.813867092132568,
        0.3653219938278198
      ],
      "min": [
        -2.000581979751587,
        -4.813867092132568,
        -0.19630900025367737
      ],
      "type": "VEC3"
    },
    {
      "bufferView": 2,
      "byteOffset": 1159956,
      "componentType": 5126,
      "count": 203,
      "max": [
        0.6644451022148132,
        0.9963086247444153,
        0.9593009352684021
      ],
      "min": [
        -0.8612810373306274,
        -0.9982100129127502,
        -0.8812777996063232
      ],
      "type": "VEC3"
    },
    {
      "bufferView": 1,
      "byteOffset": 385840,
      "componentType": 5126,
      "count": 203,
      "max": [
        1.0,
        1.0
      ],
      "min": [
        0.0,
        0.0
      ],
      "type": "VEC2"
    },
    {
      "bufferView": 0,
      "byteOffset": 668268,
      "componentType": 5125,
      "count": 738,
      "type": "SCALAR"
    }
  ],
  "asset": {
    "extras": {
      "author": "helijah (https://sketchfab.com/helijah)",
      "license": "CC-BY-4.0 (http://creativecommons.org/licenses/by/4.0/)",
      "source": "https://sketchfab.com/3d-models/socata-st-10-diplomate-2c0eba4e3e9545289c50fc739b49a815",
      "title": "Socata ST 10 \"Diplomate\""
    },
    "generator": "Sketchfab-12.64.0",
    "version": "2.0"
  },
  "bufferViews": [
    {
      "buffer": 0,
      "byteLength": 671220,
      "name": "floatBufferViews",
      "target": 34963
    },
    {
      "buffer": 0,
      "byteLength": 387464,
      "byteOffset": 671220,
      "byteStride": 8,
      "name": "floatBufferViews",
      "target": 34962
    },
    {
      "buffer": 0,
      "byteLength": 1162392,
      "byteOffset": 1058684,
      "byteStride": 12,
      "name": "floatBufferViews",
      "target": 34962
    }
  ],
  "buffers": [
    {
      "byteLength": 2221076,
      "uri": "scene.bin"
    }
  ],
  "images": [
    {
      "uri": "textures/DefaultWhite_baseColor.png"
    },
    {
      "uri": "textures/DefaultWhite.003_baseColor.png"
    },
    {
      "uri": "textures/DefaultWhite.010_baseColor.png"
    },
    {
      "uri": "textures/DefaultWhite.023_baseColor.png"
    },
    {
      "uri": "textures/DefaultWhite_FuelGauge.png_baseColor.png"
    },
    {
      "uri": "textures/DefaultWhite_KI227.png_baseColor.png"
    },
    {
      "uri": "textures/DefaultWhite_KNS80.png_baseColor.png"
    },
    {
      "uri": "textures/DefaultWhite_KR87.png_baseColor.png"
    },
    {
      "uri": "textures/DefaultWhite_MagneticCompass.png_baseColor.png"
    },
    {
      "uri": "textures/DefaultWhite_Seat.png_baseColor.png"
    },
    {
      "uri": "textures/DefaultWhite_asi.png_baseColor.png"
    },
    {
      "uri": "textures/DefaultWhite_cb.png_baseColor.png"
    },
    {
      "uri": "textures/DefaultWhite_charge.png_baseColor.png"
    },
    {
      "uri": "textures/DefaultWhite_clock.png_baseColor.png"
    },
    {
      "uri": "textures/DefaultWhite_color_prise_casque.png_baseColor.png"
    },
    {
      "uri": "textures/DefaultWhite_colors.png_baseColor.png"
    },
    {
      "uri": "textures/DefaultWhite_colors.png.001_baseColor.png"
    },
    {
      "uri": "textures/DefaultWhite_flap-indicator.png_baseColor.png"
    },
    {
      "uri": "textures/DefaultWhite_flaps.png_baseColor.png"
    },
    {
      "uri": "textures/DefaultWhite_fuel-press.png_baseColor.png"
    },
    {
      "uri": "textures/DefaultWhite_gear.png.001_baseColor.png"
    },
    {
      "uri": "textures/DefaultWhite_hi.png_baseColor.png"
    },
    {
      "uri": "textures/DefaultWhite_interior.png_baseColor.png"
    },
    {
      "uri": "textures/DefaultWhite_kap140.png_baseColor.png"
    },
    {
      "uri": "textures/DefaultWhite_kfc-200.png_baseColor.png"
    },
    {
      "uri": "textures/DefaultWhite_kt70.png_baseColor.png"
    },
    {
      "uri": "textures/DefaultWhite_kx165.png_baseColor.png"
    },
    {
      "uri": "textures/DefaultWhite_mag_switch.png_baseColor.png"
    },
    {
      "uri": "textures/DefaultWhite_oil-press.png_baseColor.png"
    },
    {
      "uri": "textures/DefaultWhite_oil-temp.png_baseColor.png"
    },
    {
      "uri": "textures/DefaultWhite_parkbrake.png_baseColor.png"
    },
    {
      "uri": "textures/DefaultWhite_pedals.png_baseColor.png"
    },
    {
      "uri": "textures/DefaultWhite_rpm.png_baseColor.png"
    },
    {
      "uri": "textures/DefaultWhite_switch.png_baseColor.png"
    },
    {
      "uri": "textures/DefaultWhite_turn.png_baseColor.png"
    },
    {
      "uri": "textures/DefaultWhite_vsi.png_baseColor.png"
    },
    {
      "uri": "textures/DefaultWhite_yoke.png_baseColor.png"
    }
  ],
  "materials": [
    {
      "doubleSided": true,
      "name": "DefaultWhite",
      "pbrMetallicRoughness": {
        "baseColorTexture": {
          "index": 0
        },
        "metallicFactor": 0.0,
        "roughnessFactor": 0.6
      }
    },
    {
      "doubleSided": true,
      "name": "DefaultWhite.003",
      "pbrMetallicRoughness": {
        "baseColorTexture": {
          "index": 1
        },
        "metallicFactor": 0.0,
        "roughnessFactor": 0.6
      }
    },
    {
      "doubleSided": true,
      "name": "DefaultWhite.010",
      "pbrMetallicRoughness": {
        "baseColorTexture": {
          "index": 2
        },
        "metallicFactor": 0.0,
        "roughnessFactor": 0.6
      }
    },
    {
      "doubleSided": true,
      "name": "DefaultWhite.023",
      "pbrMetallicRoughness": {
        "baseColorTexture": {
          "index": 3
        },
        "metallicFactor": 0.0,
        "roughnessFactor": 0.6
      }
    },
    {
      "doubleSided": true,
      "name": "DefaultWhite_FuelGauge.png",
      "pbrMetallicRoughness": {
        "baseColorTexture": {
          "index": 4
        },
        "metallicFactor": 0.0,
        "roughnessFactor": 0.6
      }
    },
    {
      "doubleSided": true,
      "name": "DefaultWhite_KI227.png",
      "pbrMetallicRoughness": {
        "baseColorTexture": {
          "index": 5
        },
        "metallicFactor": 0.0,
        "roughnessFactor": 0.6
      }
    },
    {
      "doubleSided": true,
      "name": "DefaultWhite_KNS80.png",
      "pbrMetallicRoughness": {
        "baseColorTexture": {
          "index": 6
        },
        "metallicFactor": 0.0,
        "roughnessFactor": 0.6
      }
    },
    {
      "doubleSided": true,
      "name": "DefaultWhite_KNS80.png.001",
      "pbrMetallicRoughness": {
        "baseColorTexture": {
          "index": 6
        },
        "metallicFactor": 0.0,
        "roughnessFactor": 0.6
      }
    },
    {
      "doubleSided": true,
      "name": "DefaultWhite_KNS80.png.002",
      "pbrMetallicRoughness": {
        "baseColorTexture": {
          "index": 6
        },
        "metallicFactor": 0.0,
        "roughnessFactor": 0.6
      }
    },
    {
      "doubleSided": true,
      "name": "DefaultWhite_KR87.png",
      "pbrMetallicRoughness": {
        "baseColorTexture": {
          "index": 7
        },
        "metallicFactor": 0.0,
        "roughnessFactor": 0.6
      }
    },
    {
      "doubleSided": true,
      "name": "DefaultWhite_MagneticCompass.png",
      "pbrMetallicRoughness": {
        "baseColorTexture": {
          "index": 8
        },
        "metallicFactor": 0.0,
        "roughnessFactor": 0.6
      }
    },
    {
      "doubleSided": true,
      "name": "DefaultWhite_Seat.png",
      "pbrMetallicRoughness": {
        "baseColorTexture": {
          "index": 9
        },
        "metallicFactor": 0.0,
        "roughnessFactor": 0.6
      }
    },
    {
      "doubleSided": true,
      "name": "DefaultWhite_alt.png",
      "pbrMetallicRoughness": {
        "baseColorTexture": {
          "index": 1
        },
        "metallicFactor": 0.0,
        "roughnessFactor": 0.6
      }
    },
    {
      "doubleSided": true,
      "name": "DefaultWhite_asi.png",
      "pbrMetallicRoughness": {
        "baseColorTexture": {
          "index": 10
        },
        "metallicFactor": 0.0,
        "roughnessFactor": 0.6
      }
    },
    {
      "doubleSided": true,
      "name": "DefaultWhite_cb.png",
      "pbrMetallicRoughness": {
        "baseColorTexture": {
          "index": 11
        },
        "metallicFactor": 0.0,
        "roughnessFactor": 0.6
      }
    },
    {
      "doubleSided": true,
      "name": "DefaultWhite_charge.png",
      "pbrMetallicRoughness": {
        "baseColorTexture": {
          "index": 12
        },
        "metallicFactor": 0.0,
        "roughnessFactor": 0.6
      }
    },
    {
      "doubleSided": true,
      "name": "DefaultWhite_clock.png",
      "pbrMetallicRoughness": {
        "baseColorTexture": {
          "index": 13
        },
        "metallicFactor": 0.0,
        "roughnessFactor": 0.6
      }
    },
    {
      "doubleSided": true,
      "name": "DefaultWhite_color_prise_casque.png",
      "pbrMetallicRoughness": {
        "baseColorTexture": {
          "index": 14
        },
        "metallicFactor": 0.0,
        "roughnessFactor": 0.6
      }
    },
    {
      "doubleSided": true,
      "name": "DefaultWhite_colors.png",
      "pbrMetallicRoughness": {
        "baseColorTexture": {
          "index": 15
        },
        "metallicFactor": 0.0,
        "roughnessFactor": 0.6
      }
    },
    {
      "doubleSided": true,
      "name": "DefaultWhite_colors.png.001",
      "pbrMetallicRoughness": {
        "baseColorTexture": {
          "index": 16
        },
        "metallicFactor": 0.0,
        "roughnessFactor": 0.6
      }
    },
    {
      "doubleSided": true,
      "name": "DefaultWhite_dme40.png",
      "pbrMetallicRoughness": {
        "baseColorTexture": {
          "index": 2
        },
        "metallicFactor": 0.0,
        "roughnessFactor": 0.6
      }
    },
    {
      "doubleSided": true,
      "name": "DefaultWhite_flap-indicator.png",
      "pbrMetallicRoughness": {
        "baseColorTexture": {
          "index": 17
        },
        "metallicFactor": 0.0,
        "roughnessFactor": 0.6
      }
    },
    {
      "doubleSided": true,
      "name": "DefaultWhite_flaps.png",
      "pbrMetallicRoughness": {
        "baseColorTexture": {
          "index": 18
        },
        "metallicFactor": 0.0,
        "roughnessFactor": 0.6
      }
    },
    {
      "doubleSided": true,
      "name": "DefaultWhite_fuel-press.png",
      "pbrMetallicRoughness": {
        "baseColorTexture": {
          "index": 19
        },
        "metallicFactor": 0.0,
        "roughnessFactor": 0.6
      }
    },
    {
      "doubleSided": true,
      "name": "DefaultWhite_gear.png.001",
      "pbrMetallicRoughness": {
        "baseColorTexture": {
          "index": 20
        },
        "metallicFactor": 0.0,
        "roughnessFactor": 0.6
      }
    },
    {
      "doubleSided": true,
      "name": "DefaultWhite_hi.png",
      "pbrMetallicRoughness": {
        "baseColorTexture": {
          "index": 21
        },
        "metallicFactor": 0.0,
        "roughnessFactor": 0.6
      }
    },
    {
      "doubleSided": true,
      "name": "DefaultWhite_interior.png",
      "pbrMetallicRoughness": {
        "baseColorTexture": {
          "index": 22
        },
        "metallicFactor": 0.0,
        "roughnessFactor": 0.6
      }
    },
    {
      "doubleSided": true,
      "name": "DefaultWhite_kap140.png",
      "pbrMetallicRoughness": {
        "baseColorTexture": {
          "index": 23
        },
        "metallicFactor": 0.0,
        "roughnessFactor": 0.6
      }
    },
    {
      "doubleSided": true,
      "name": "DefaultWhite_kfc-200.png",
      "pbrMetallicRoughness": {
        "baseColorTexture": {
          "index": 24
        },
        "metallicFactor": 0.0,
        "roughnessFactor": 0.6
      }
    },
    {
      "doubleSided": true,
      "name": "DefaultWhite_kt70.png",
      "pbrMetallicRoughness": {
        "baseColorTexture": {
          "index": 25
        },
        "metallicFactor": 0.0,
        "roughnessFactor": 0.6
      }
    },
    {
      "doubleSided": true,
      "name": "DefaultWhite_kx165.png",
      "pbrMetallicRoughness": {
        "baseColorTexture": {
          "index": 26
        },
        "metallicFactor": 0.0,
        "roughnessFactor": 0.6
      }
    },
    {
      "doubleSided": true,
      "name": "DefaultWhite_mag_switch.png",
      "pbrMetallicRoughness": {
        "baseColorTexture": {
          "index": 27
        },
        "metallicFactor": 0.0,
        "roughnessFactor": 0.6
      }
    },
    {
      "doubleSided": true,
      "name": "DefaultWhite_oil-press.png",
      "pbrMetallicRoughness": {
        "baseColorTexture": {
          "index": 28
        },
        "metallicFactor": 0.0,
        "roughnessFactor": 0.6
      }
    },
    {
      "doubleSided": true,
      "name": "DefaultWhite_oil-temp.png",
      "pbrMetallicRoughness": {
        "baseColorTexture": {
          "index": 29
        },
        "metallicFactor": 0.0,
        "roughnessFactor": 0.6
      }
    },
    {
      "doubleSided": true,
      "name": "DefaultWhite_parkbrake.png",
      "pbrMetallicRoughness": {
        "baseColorTexture": {
          "index": 30
        },
        "metallicFactor": 0.0,
        "roughnessFactor": 0.6
      }
    },
    {
      "doubleSided": true,
      "name": "DefaultWhite_pedals.png",
      "pbrMetallicRoughness": {
        "baseColorTexture": {
          "index": 31
        },
        "metallicFactor": 0.0,
        "roughnessFactor": 0.6
      }
    },
    {
      "doubleSided": true,
      "name": "DefaultWhite_rpm.png",
      "pbrMetallicRoughness": {
        "baseColorTexture": {
          "index": 32
        },
        "metallicFactor": 0.0,
        "roughnessFactor": 0.6
      }
    },
    {
      "doubleSided": true,
      "name": "DefaultWhite_switch.png",
      "pbrMetallicRoughness": {
        "baseColorTexture": {
          "index": 33
        },
        "metallicFactor": 0.0,
        "roughnessFactor": 0.6
      }
    },
    {
      "doubleSided": true,
      "name": "DefaultWhite_turn.png",
      "pbrMetallicRoughness": {
        "baseColorTexture": {
          "index": 34
        },
        "metallicFactor": 0.0,
        "roughnessFactor": 0.6
      }
    },
    {
      "doubleSided": true,
      "name": "DefaultWhite_vsi.png",
      "pbrMetallicRoughness": {
        "baseColorTexture": {
          "index": 35
        },
        "metallicFactor": 0.0,
        "roughnessFactor": 0.6
      }
    },
    {
      "doubleSided": true,
      "name": "DefaultWhite_warning.png",
      "pbrMetallicRoughness": {
        "baseColorTexture": {
          "index": 3
        },
        "metallicFactor": 0.0,
        "roughnessFactor": 0.6
      }
    },
    {
      "doubleSided": true,
      "name": "DefaultWhite_yoke.png",
      "pbrMetallicRoughness": {
        "baseColorTexture": {
          "index": 36
        },
        "metallicFactor": 0.0,
        "roughnessFactor": 0.6
      }
    },
    {
      "alphaMode": "BLEND",
      "doubleSided": true,
      "name": "TranspGreen",
      "pbrMetallicRoughness": {
        "baseColorFactor": [
          0.0,
          0.8,
          0.0,
          0.5
        ],
        "metallicFactor": 0.0,
        "roughnessFactor": 0.6
      }
    },
    {
      "alphaMode": "BLEND",
      "doubleSided": true,
      "name": "TranspRed",
      "pbrMetallicRoughness": {
        "baseColorFactor": [
          0.8,
          0.0,
          0.0,
          0.5
        ],
        "metallicFactor": 0.0,
        "roughnessFactor": 0.6
      }
    },
    {
      "alphaMode": "BLEND",
      "doubleSided": true,
      "name": "transparent",
      "pbrMetallicRoughness": {
        "baseColorFactor": [
          0.8,
          0.8,
          0.8,
          0.15
        ],
        "metallicFactor": 0.0,
        "roughnessFactor": 0.6
      }
    },
    {
      "alphaMode": "BLEND",
      "doubleSided": true,
      "name": "transparentExt",
      "pbrMetallicRoughness": {
        "baseColorFactor": [
          0.8,
          0.8,
          0.8,
          0.5
        ],
        "metallicFactor": 0.0,
        "roughnessFactor": 0.6
      }
    }
  ],
  "meshes": [
    {
      "name": "Object_0",
      "primitives": [
        {
          "attributes": {
            "NORMAL": 1,
            "POSITION": 0,
            "TEXCOORD_0": 2
          },
          "indices": 3,
          "material": 2,
          "mode": 4
        }
      ]
    },
    {
      "name": "Object_1",
      "primitives": [
        {
          "attributes": {
            "NORMAL": 5,
            "POSITION": 4,
            "TEXCOORD_0": 6
          },
          "indices": 7,
          "material": 3,
          "mode": 4
        }
      ]
    },
    {
      "name": "Object_2",
      "primitives": [
        {
          "attributes": {
            "NORMAL": 9,
            "POSITION": 8,
            "TEXCOORD_0": 10
          },
          "indices": 11,
          "material": 8,
          "mode": 4
        }
      ]
    },
    {
      "name": "Object_3",
      "primitives": [
        {
          "attributes": {
            "NORMAL": 13,
            "POSITION": 12,
            "TEXCOORD_0": 14
          },
          "indices": 15,
          "material": 17,
          "mode": 4
        }
      ]
    },
    {
      "name": "Object_4",
      "primitives": [
        {
          "attributes": {
            "NORMAL": 17,
            "POSITION": 16,
            "TEXCOORD_0": 18
          },
          "indices": 19,
          "material": 19,
          "mode": 4
        }
      ]
    },
    {
      "name": "Object_5",
      "primitives": [
        {
          "attributes": {
            "NORMAL": 21,
            "POSITION": 20,
            "TEXCOORD_0": 22
          },
          "indices": 23,
          "material": 22,
          "mode": 4
        }
      ]
    },
    {
      "name": "Object_6",
      "primitives": [
        {
          "attributes": {
            "NORMAL": 25,
            "POSITION": 24,
            "TEXCOORD_0": 26
          },
          "indices": 27,
          "material": 34,
          "mode": 4
        }
      ]
    },
    {
      "name": "Object_7",
      "primitives": [
        {
          "attributes": {
            "NORMAL": 29,
            "POSITION": 28,
            "TEXCOORD_0": 30
          },
          "indices": 31,
          "material": 42,
          "mode": 4
        }
      ]
    },
    {
      "name": "Object_8",
      "primitives": [
        {
          "attributes": {
            "NORMAL": 33,
            "POSITION": 32,
            "TEXCOORD_0": 34
          },
          "indices": 35,
          "material": 0,
          "mode": 4
        }
      ]
    },
    {
      "name": "Object_9",
      "primitives": [
        {
          "attributes": {
            "NORMAL": 37,
            "POSITION": 36,
            "TEXCOORD_0": 38
          },
          "indices": 39,
          "material": 0,
          "mode": 4
        }
      ]
    },
    {
      "name": "Object_10",
      "primitives": [
        {
          "attributes": {
            "NORMAL": 41,
            "POSITION": 40,
            "TEXCOORD_0": 42
          },
          "indices": 43,
          "material": 0,
          "mode": 4
        }
      ]
    },
    {
      "name": "Object_11",
      "primitives": [
        {
          "attributes": {
            "NORMAL": 45,
            "POSITION": 44,
            "TEXCOORD_0": 46
          },
          "indices": 47,
          "material": 0,
          "mode": 4
        }
      ]
    },
    {
      "name": "Object_12",
      "primitives": [
        {
          "attributes": {
            "NORMAL": 49,
            "POSITION": 48,
            "TEXCOORD_0": 50
          },
          "indices": 51,
          "material": 0,
          "mode": 4
        }
      ]
    },
    {
      "name": "Object_13",
      "primitives": [
        {
          "attributes": {
            "NORMAL": 53,
            "POSITION": 52,
            "TEXCOORD_0": 54
          },
          "indices": 55,
          "material": 1,
          "mode": 4
        }
      ]
    },
    {
      "name": "Object_14",
      "primitives": [
        {
          "attributes": {
            "NORMAL": 57,
            "POSITION": 56,
            "TEXCOORD_0": 58
          },
          "indices": 59,
          "material": 4,
          "mode": 4
        }
      ]
    },
    {
      "name": "Object_15",
      "primitives": [
        {
          "attributes": {
            "NORMAL": 61,
            "POSITION": 60,
            "TEXCOORD_0": 62
          },
          "indices": 63,
          "material": 5,
          "mode": 4
        }
      ]
    },
    {
      "name": "Object_16",
      "primitives": [
        {
          "attributes": {
            "NORMAL": 65,
            "POSITION": 64,
            "TEXCOORD_0": 66
          },
          "indices": 67,
          "material": 6,
          "mode": 4
        }
      ]
    },
    {
      "name": "Object_17",
      "primitives": [
        {
          "attributes": {
            "NORMAL": 69,
            "POSITION": 68,
            "TEXCOORD_0": 70
          },
          "indices": 71,
          "material": 7,
          "mode": 4
        }
      ]
    },
    {
      "name": "Object_18",
      "primitives": [
        {
          "attributes": {
            "NORMAL": 73,
            "POSITION": 72,
            "TEXCOORD_0": 74
          },
          "indices": 75,
          "material": 9,
          "mode": 4
        }
      ]
    },
    {
      "name": "Object_19",
      "primitives": [
        {
          "attributes": {
            "NORMAL": 77,
            "POSITION": 76,
            "TEXCOORD_0": 78
          },
          "indices": 79,
          "material": 10,
          "mode": 4
        }
      ]
    },
    {
      "name": "Object_20",
      "primitives": [
        {
          "attributes": {
            "NORMAL": 81,
            "POSITION": 80,
            "TEXCOORD_0": 82
          },
          "indices": 83,
          "material": 11,
          "mode": 4
        }
      ]
    },
    {
      "name": "Object_21",
      "primitives": [
        {
          "attributes": {
            "NORMAL": 85,
            "POSITION": 84,
            "TEXCOORD_0": 86
          },
          "indices": 87,
          "material": 11,
          "mode": 4
        }
      ]
    },
    {
      "name": "Object_22",
      "primitives": [
        {
          "attributes": {
            "NORMAL": 89,
            "POSITION": 88,
            "TEXCOORD_0": 90
          },
          "indices": 91,
          "material": 12,
          "mode": 4
        }
      ]
    },
    {
      "name": "Object_23",
      "primitives": [
        {
          "attributes": {
            "NORMAL": 93,
            "POSITION": 92,
            "TEXCOORD_0": 94
          },
          "indices": 95,
          "material": 13,
          "mode": 4
        }
      ]
    },
    {
      "name": "Object_24",
      "primitives": [
        {
          "attributes": {
            "NORMAL": 97,
            "POSITION": 96,
            "TEXCOORD_0": 98
          },
          "indices": 99,
          "material": 14,
          "mode": 4
        }
      ]
    },
    {
      "name": "Object_25",
      "primitives": [
        {
          "attributes": {
            "NORMAL": 101,
            "POSITION": 100,
            "TEXCOORD_0": 102
          },
          "indices": 103,
          "material": 15,
          "mode": 4
        }
      ]
    },
    {
      "name": "Object_26",
      "primitives": [
        {
          "attributes": {
            "NORMAL": 105,
            "POSITION": 104,
            "TEXCOORD_0": 106
          },
          "indices": 107,
          "material": 16,
          "mode": 4
        }
      ]
    },
    {
      "name": "Object_27",
      "primitives": [
        {
          "attributes": {
            "NORMAL": 109,
            "POSITION": 108,
            "TEXCOORD_0": 110
          },
          "indices": 111,
          "material": 18,
          "mode": 4
        }
      ]
    },
    {
      "name": "Object_28",
      "primitives": [
        {
          "attributes": {
            "NORMAL": 113,
            "POSITION": 112,
            "TEXCOORD_0": 114
          },
          "indices": 115,
          "material": 20,
          "mode": 4
        }
      ]
    },
    {
      "name": "Object_29",
      "primitives": [
        {
          "attributes": {
            "NORMAL": 117,
            "POSITION": 116,
            "TEXCOORD_0": 118
          },
          "indices": 119,
          "material": 21,
          "mode": 4
        }
      ]
    },
    {
      "name": "Object_30",
      "primitives": [
        {
          "attributes": {
            "NORMAL": 121,
            "POSITION": 120,
            "TEXCOORD_0": 122
          },
          "indices": 123,
          "material": 23,
          "mode": 4
        }
      ]
    },
    {
      "name": "Object_31",
      "primitives": [
        {
          "attributes": {
            "NORMAL": 125,
            "POSITION": 124,
            "TEXCOORD_0": 126
          },
          "indices": 127,
          "material": 24,
          "mode": 4
        }
      ]
    },
    {
      "name": "Object_32",
      "primitives": [
        {
          "attributes": {
            "NORMAL": 129,
            "POSITION": 128,
            "TEXCOORD_0": 130
          },
          "indices": 131,
          "material": 25,
          "mode": 4
        }
      ]
    },
    {
      "name": "Object_33",
      "primitives": [
        {
          "attributes": {
            "NORMAL": 133,
            "POSITION": 132,
            "TEXCOORD_0": 134
          },
          "indices": 135,
          "material": 26,
          "mode": 4
        }
      ]
    },
    {
      "name": "Object_34",
      "primitives": [
        {
          "attributes": {
            "NORMAL": 137,
            "POSITION": 136,
            "TEXCOORD_0": 138
          },
          "indices": 139,
          "material": 27,
          "mode": 4
        }
      ]
    },
    {
      "name": "Object_35",
      "primitives": [
        {
          "attributes": {
            "NORMAL": 141,
            "POSITION": 140,
            "TEXCOORD_0": 142
          },
          "indices": 143,
          "material": 28,
          "mode": 4
        }
      ]
    },
    {
      "name": "Object_36",
      "primitives": [
        {
          "attributes": {
            "NORMAL": 145,
            "POSITION": 144,
            "TEXCOORD_0": 146
          },
          "indices": 147,
          "material": 29,
          "mode": 4
        }
      ]
    },
    {
      "name": "Object_37",
      "primitives": [
        {
          "attributes": {
            "NORMAL": 149,
            "POSITION": 148,
            "TEXCOORD_0": 150
          },
          "indices": 151,
          "material": 30,
          "mode": 4
        }
      ]
    },
    {
      "name": "Object_38",
      "primitives": [
        {
          "attributes": {
            "NORMAL": 153,
            "POSITION": 152,
            "TEXCOORD_0": 154
          },
          "indices": 155,
          "material": 31,
          "mode": 4
        }
      ]
    },
    {
      "name": "Object_39",
      "primitives": [
        {
          "attributes": {
            "NORMAL": 157,
            "POSITION": 156,
            "TEXCOORD_0": 158
          },
          "indices": 159,
          "material": 32,
          "mode": 4
        }
      ]
    },
    {
      "name": "Object_40",
      "primitives": [
        {
          "attributes": {
            "NORMAL": 161,
            "POSITION": 160,
            "TEXCOORD_0": 162
          },
          "indices": 163,
          "material": 33,
          "mode": 4
        }
      ]
    },
    {
      "name": "Object_41",
      "primitives": [
        {
          "attributes": {
            "NORMAL": 165,
            "POSITION": 164,
            "TEXCOORD_0": 166
          },
          "indices": 167,
          "material": 35,
          "mode": 4
        }
      ]
    },
    {
      "name": "Object_42",
      "primitives": [
        {
          "attributes": {
            "NORMAL": 169,
            "POSITION": 168,
            "TEXCOORD_0": 170
          },
          "indices": 171,
          "material": 36,
          "mode": 4
        }
      ]
    },
    {
      "name": "Object_43",
      "primitives": [
        {
          "attributes": {
            "NORMAL": 173,
            "POSITION": 172,
            "TEXCOORD_0": 174
          },
          "indices": 175,
          "material": 37,
          "mode": 4
        }
      ]
    },
    {
      "name": "Object_44",
      "primitives": [
        {
          "attributes": {
            "NORMAL": 177,
            "POSITION": 176,
            "TEXCOORD_0": 178
          },
          "indices": 179,
          "material": 37,
          "mode": 4
        }
      ]
    },
    {
      "name": "Object_45",
      "primitives": [
        {
          "attributes": {
            "NORMAL": 181,
            "POSITION": 180,
            "TEXCOORD_0": 182
          },
          "indices": 183,
          "material": 38,
          "mode": 4
        }
      ]
    },
    {
      "name": "Object_46",
      "primitives": [
        {
          "attributes": {
            "NORMAL": 185,
            "POSITION": 184,
            "TEXCOORD_0": 186
          },
          "indices": 187,
          "material": 39,
          "mode": 4
        }
      ]
    },
    {
      "name": "Object_47",
      "primitives": [
        {
          "attributes": {
            "NORMAL": 189,
            "POSITION": 188,
            "TEXCOORD_0": 190
          },
          "indices": 191,
          "material": 40,
          "mode": 4
        }
      ]
    },
    {
      "name": "Object_48",
      "primitives": [
        {
          "attributes": {
            "NORMAL": 193,
            "POSITION": 192,
            "TEXCOORD_0": 194
          },
          "indices": 195,
          "material": 41,
          "mode": 4
        }
      ]
    },
    {
      "name": "Object_49",
      "primitives": [
        {
          "attributes": {
            "NORMAL": 197,
            "POSITION": 196,
            "TEXCOORD_0": 198
          },
          "indices": 199,
          "material": 43,
          "mode": 4
        }
      ]
    },
    {
      "name": "Object_50",
      "primitives": [
        {
          "attributes": {
            "NORMAL": 201,
            "POSITION": 200,
            "TEXCOORD_0": 202
          },
          "indices": 203,
          "material": 44,
          "mode": 4
        }
      ]
    },
    {
      "name": "Object_51",
      "primitives": [
        {
          "attributes": {
            "NORMAL": 205,
            "POSITION": 204,
            "TEXCOORD_0": 206
          },
          "indices": 207,
          "material": 45,
          "mode": 4
        }
      ]
    }
  ],
  "nodes": [
    {
      "children": [
        1
      ],
      "matrix": [
        1.0,
        0.0,
        0.0,
        0.0,
        0.0,
        2.220446049250313e-16,
        -1.0,
        0.0,
        0.0,
        1.0,
        2.220446049250313e-16,
        0.0,
        0.0,
        0.0,
        0.0,
        1.0
      ],
      "name": "Sketchfab_model"
    },
    {
      "children": [
        2,
        3,
        4,
        5,
        6,
        7,
        8,
        9,
        10,
        11,
        12,
        13,
        14,
        15,
        16,
        17,
        18,
        19,
        20,
        21,
        22,
        23,
        24,
        25,
        26,
        27,
        28,
        29,
        30,
        31,
        32,
        33,
        34,
        35,
        36,
        37,
        38,
        39,
        40,
        41,
        42,
        43,
        44,
        45,
        46,
        47,
        48,
        49,
        50,
        51,
        52,
        53
      ],
      "name": "st10.obj.cleaner.materialmerger.gles"
    },
    {
      "mesh": 0,
      "name": "Object_2"
    },
    {
      "mesh": 1,
      "name": "Object_3"
    },
    {
      "mesh": 2,
      "name": "Object_4"
    },
    {
      "mesh": 3,
      "name": "Object_5"
    },
    {
      "mesh": 4,
      "name": "Object_6"
    },
    {
      "mesh": 5,
      "name": "Object_7"
    },
    {
      "mesh": 6,
      "name": "Object_8"
    },
    {
      "mesh": 7,
      "name": "Object_9"
    },
    {
      "mesh": 8,
      "name": "Object_10"
    },
    {
      "mesh": 9,
      "name": "Object_11"
    },
    {
      "mesh": 10,
      "name": "Object_12"
    },
    {
      "mesh": 11,
      "name": "Object_13"
    },
    {
      "mesh": 12,
      "name": "Object_14"
    },
    {
      "mesh": 13,
      "name": "Object_15"
    },
    {
      "mesh": 14,
      "name": "Object_16"
    },
    {
      "mesh": 15,
      "name": "Object_17"
    },
    {
      "mesh": 16,
      "name": "Object_18"
    },
    {
      "mesh": 17,
      "name": "Object_19"
    },
    {
      "mesh": 18,
      "name": "Object_20"
    },
    {
      "mesh": 19,
      "name": "Object_21"
    },
    {
      "mesh": 20,
      "name": "Object_22"
    },
    {
      "mesh": 21,
      "name": "Object_23"
    },
    {
      "mesh": 22,
      "name": "Object_24"
    },
    {
      "mesh": 23,
      "name": "Object_25"
    },
    {
      "mesh": 24,
      "name": "Object_26"
    },
    {
      "mesh": 25,
      "name": "Object_27"
    },
    {
      "mesh": 26,
      "name": "Object_28"
    },
    {
      "mesh": 27,
      "name": "Object_29"
    },
    {
      "mesh": 28,
      "name": "Object_30"
    },
    {
      "mesh": 29,
      "name": "Object_31"
    },
    {
      "mesh": 30,
      "name": "Object_32"
    },
    {
      "mesh": 31,
      "name": "Object_33"
    },
    {
      "mesh": 32,
      "name": "Object_34"
    },
    {
      "mesh": 33,
      "name": "Object_35"
    },
    {
      "mesh": 34,
      "name": "Object_36"
    },
    {
      "mesh": 35,
      "name": "Object_37"
    },
    {
      "mesh": 36,
      "name": "Object_38"
    },
    {
      "mesh": 37,
      "name": "Object_39"
    },
    {
      "mesh": 38,
      "name": "Object_40"
    },
    {
      "mesh": 39,
      "name": "Object_41"
    },
    {
      "mesh": 40,
      "name": "Object_42"
    },
    {
      "mesh": 41,
      "name": "Object_43"
    },
    {
      "mesh": 42,
      "name": "Object_44"
    },
    {
      "mesh": 43,
      "name": "Object_45"
    },
    {
      "mesh": 44,
      "name": "Object_46"
    },
    {
      "mesh": 45,
      "name": "Object_47"
    },
    {
      "mesh": 46,
      "name": "Object_48"
    },
    {
      "mesh": 47,
      "name": "Object_49"
    },
    {
      "mesh": 48,
      "name": "Object_50"
    },
    {
      "mesh": 49,
      "name": "Object_51"
    },
    {
      "mesh": 50,
      "name": "Object_52"
    },
    {
      "mesh": 51,
      "name": "Object_53"
    }
  ],
  "samplers": [
    {
      "magFilter": 9729,
      "minFilter": 9987,
      "wrapS": 10497,
      "wrapT": 10497
    }
  ],
  "scene": 0,
  "scenes": [
    {
      "name": "Sketchfab_Scene",
      "nodes": [
        0
      ]
    }
  ],
  "textures": [
    {
      "sampler": 0,
      "source": 0
    },
    {
      "sampler": 0,
      "source": 1
    },
    {
      "sampler": 0,
      "source": 2
    },
    {
      "sampler": 0,
      "source": 3
    },
    {
      "sampler": 0,
      "source": 4
    },
    {
      "sampler": 0,
      "source": 5
    },
    {
      "sampler": 0,
      "source": 6
    },
    {
      "sampler": 0,
      "source": 7
    },
    {
      "sampler": 0,
      "source": 8
    },
    {
      "sampler": 0,
      "source": 9
    },
    {
      "sampler": 0,
      "source": 10
    },
    {
      "sampler": 0,
      "source": 11
    },
    {
      "sampler": 0,
      "source": 12
    },
    {
      "sampler": 0,
      "source": 13
    },
    {
      "sampler": 0,
      "source": 14
    },
    {
      "sampler": 0,
      "source": 15
    },
    {
      "sampler": 0,
      "source": 16
    },
    {
      "sampler": 0,
      "source": 17
    },
    {
      "sampler": 0,
      "source": 18
    },
    {
      "sampler": 0,
      "source": 19
    },
    {
      "sampler": 0,
      "source": 20
    },
    {
      "sampler": 0,
      "source": 21
    },
    {
      "sampler": 0,
      "source": 22
    },
    {
      "sampler": 0,
      "source": 23
    },
    {
      "sampler": 0,
      "source": 24
    },
    {
      "sampler": 0,
      "source": 25
    },
    {
      "sampler": 0,
      "source": 26
    },
    {
      "sampler": 0,
      "source": 27
    },
    {
      "sampler": 0,
      "source": 28
    },
    {
      "sampler": 0,
      "source": 29
    },
    {
      "sampler": 0,
      "source": 30
    },
    {
      "sampler": 0,
      "source": 31
    },
    {
      "sampler": 0,
      "source": 32
    },
    {
      "sampler": 0,
      "source": 33
    },
    {
      "sampler": 0,
      "source": 34
    },
    {
      "sampler": 0,
      "source": 35
    },
    {
      "sampler": 0,
      "source": 36
    }
  ]
}
